<svg width="246" height="210" viewBox="0 0 246 210" fill="none" xmlns="http://www.w3.org/2000/svg">
<path d="M101.885 19.4336C98.236 20.6084 94.71 24.035 93.111 28.0979C92.332 29.958 92.25 30.5455 92.66 30.986C93.07 31.4266 93.152 31.3776 92.947 30.6923C92.783 30.2518 92.865 29.8601 93.111 29.8601C93.357 29.8601 93.398 29.6154 93.275 29.3706C92.947 28.7343 93.849 27.3147 94.341 27.7063C94.546 27.8532 94.587 27.6573 94.505 27.2657C94.177 26.2867 97.58 22.2727 99.876 20.9511C101.475 20.0699 102.582 19.8252 105.165 19.8252C108.896 19.8252 111.315 20.9021 113.775 23.7413C114.554 24.6224 115.21 25.1119 115.21 24.8671C115.21 24.035 112.832 21.6853 110.823 20.5105C108.855 19.3846 103.894 18.7972 101.885 19.4336Z" fill="black"/>
<path d="M115.62 25.8951C115.62 26.1399 115.825 26.5315 116.03 26.6783C116.276 26.8252 116.44 26.7762 116.44 26.4825C116.44 26.2378 116.276 25.8462 116.03 25.6993C115.825 25.5525 115.62 25.6014 115.62 25.8951Z" fill="black"/>
<path d="M103.115 28.1468C101.762 28.9301 100.614 30.7412 101.106 31.2308C101.27 31.4266 101.475 31.2797 101.598 30.8881C102.295 28.4405 105.288 27.6084 107.051 29.3217C108.896 31.0839 107.994 35.0979 105.493 36.2727C104.714 36.6154 104.55 37.007 104.632 38.7692L104.673 40.8741L104.837 39.0629C104.96 37.8391 105.247 37.1538 105.78 36.958C107.051 36.4685 108.65 33.8252 108.65 32.2587C108.65 30.1538 107.953 28.8811 106.395 28.0979C104.673 27.2657 104.632 27.2657 103.115 28.1468Z" fill="black"/>
<path d="M116.891 28.6363C116.891 28.8811 117.137 29.6643 117.465 30.3496C117.793 31.0349 118.08 32.3566 118.121 33.2867C118.162 34.2168 118.244 34.6084 118.367 34.1189C118.654 32.7972 118.162 30.2028 117.465 29.0769C117.137 28.5874 116.891 28.3426 116.891 28.6363Z" fill="black"/>
<path d="M67.24 31.5245C66.01 34.951 66.133 37.2028 67.65 39.1119C69.085 40.8741 69.29 40.972 69.29 39.7972C69.29 39.3566 69.782 38.0839 70.397 37.007C71.012 35.8811 71.545 34.951 71.586 34.8531C71.586 34.8042 72.447 35.1958 73.431 35.7342C75.563 36.8601 77.818 37.007 79.007 35.979C79.786 35.3426 79.909 35.3426 80.114 36.028C80.278 36.4685 80.196 37.1049 79.991 37.3986C79.745 37.7412 79.745 38.2307 79.95 38.6713C80.278 39.2587 80.36 39.1608 80.36 38.3287C80.36 37.7412 80.565 37.1049 80.77 36.958C82.369 35.7832 79.294 30.8391 76.383 29.9091C73.923 29.0769 70.889 29.2727 69.167 30.3007C68.101 30.937 67.773 31.0349 68.101 30.5454C68.347 30.1538 68.47 29.7133 68.347 29.5175C68.183 29.3706 67.691 30.2517 67.24 31.5245ZM77.08 32.0629C78.31 32.6993 79.171 33.2377 78.925 33.2867C78.72 33.2867 78.761 33.4825 79.089 33.7273C79.54 34.0699 79.458 34.2657 78.72 34.7552C77.736 35.3916 74.948 35.7832 75.235 35.2937C75.317 35.0979 74.538 34.6573 73.554 34.3147C71.627 33.6294 69.7 34.1189 69.7 35.2447C69.7 35.5384 69.946 35.6363 70.233 35.4405C70.561 35.1958 70.561 35.3426 70.151 35.8811C69.864 36.3217 69.331 36.7133 69.003 36.7133C68.675 36.7133 68.552 36.9091 68.675 37.2028C68.798 37.4475 68.675 37.6923 68.388 37.6923C67.691 37.6923 67.404 34.5105 68.06 34.021C68.265 33.8741 68.47 33.4335 68.47 33.1398C68.47 32.7972 68.306 32.8461 68.06 33.2867C67.855 33.6783 67.65 33.7762 67.65 33.4335C67.65 33.1398 68.224 32.4545 68.921 31.9161C70.807 30.4965 74.21 30.5944 77.08 32.0629Z" fill="black"/>
<path d="M98.646 30.2028C98.4 30.8881 98.441 30.9371 98.851 30.4965C99.138 30.1539 99.261 29.7622 99.138 29.6154C99.015 29.4685 98.769 29.7133 98.646 30.2028Z" fill="black"/>
<path d="M66.01 31.8182C66.01 32.0629 66.215 32.3077 66.461 32.3077C66.666 32.3077 66.748 32.0629 66.625 31.8182C66.502 31.5245 66.297 31.3287 66.174 31.3287C66.092 31.3287 66.01 31.5245 66.01 31.8182Z" fill="black"/>
<path d="M91.922 34.9021C91.84 39.2098 92.783 42.4406 95.12 45.5245C96.842 47.8252 96.678 46.8461 94.915 44.2517C94.136 43.1259 93.48 41.8531 93.48 41.5105C93.48 41.1189 93.234 40.5315 92.988 40.2378C92.66 39.8951 92.332 37.7413 92.209 35.3426L91.963 31.0839L91.922 34.9021Z" fill="black"/>
<path d="M105.165 31.7692C105.042 32.014 105.124 32.3567 105.37 32.5525C105.616 32.7483 105.657 33.1399 105.493 33.4336C105.329 33.7762 105.493 33.7273 105.903 33.3357C106.272 32.993 106.6 32.4056 106.6 32.1119C106.6 31.8182 106.395 31.9161 106.19 32.3077C105.821 32.9441 105.616 32.6504 105.739 31.6713C105.78 31.1818 105.452 31.2308 105.165 31.7692Z" fill="black"/>
<path d="M117.916 37.8881C117.752 39.3566 117.342 40.8252 117.014 41.1678C116.686 41.4615 116.44 41.951 116.44 42.1958C116.44 42.4406 115.948 43.4196 115.374 44.3496C114.759 45.2797 114.472 46.014 114.636 46.014C115.005 46.014 116.85 42.8811 116.85 42.2937C116.85 42.1468 117.096 41.7063 117.424 41.3636C117.998 40.6783 118.777 35.8811 118.367 35.4405C118.285 35.2937 118.039 36.4196 117.916 37.8881Z" fill="black"/>
<path d="M74.046 38.4266C73.923 38.8182 73.513 39.1608 73.103 39.2098C72.693 39.2098 73.185 39.5524 74.21 39.8951C76.055 40.5804 76.547 40.5804 76.096 39.7482C75.973 39.4545 75.44 39.3566 74.907 39.5035C74.169 39.7482 74.087 39.6503 74.538 39.1119C74.784 38.7692 75.03 38.2797 75.03 38.0839C75.03 37.3986 74.292 37.6433 74.046 38.4266Z" fill="black"/>
<path d="M102.582 38.2797C102.295 38.6224 102.09 39.0629 102.09 39.3077C102.09 39.5524 102.377 39.3566 102.746 38.9161C103.115 38.4755 103.32 38.035 103.238 37.9371C103.156 37.7902 102.828 37.986 102.582 38.2797Z" fill="black"/>
<path d="M106.395 38.1329C106.272 38.3776 106.313 38.7203 106.518 38.8671C106.723 39.014 106.887 38.8182 106.887 38.4266C106.887 37.5944 106.764 37.4965 106.395 38.1329Z" fill="black"/>
<path d="M65.559 39.8462C65.19 40.8252 65.19 41.3636 65.559 42.1958C66.01 43.2727 66.01 43.2238 65.846 41.8042C65.723 40.972 65.846 40.042 66.092 39.7483C66.379 39.4056 66.461 39.014 66.297 38.8671C66.174 38.6713 65.805 39.1119 65.559 39.8462Z" fill="black"/>
<path d="M78.31 39.5524C78.31 40.4825 79.54 40.8741 80.073 40.1398C80.442 39.6503 80.442 39.5524 79.909 39.7972C79.54 39.944 79.007 39.7972 78.761 39.5035C78.433 39.1119 78.31 39.1119 78.31 39.5524Z" fill="black"/>
<path d="M66.215 40.5804C65.928 41.1679 66.707 41.7553 67.24 41.3637C67.486 41.2168 67.65 41.4126 67.65 41.8042C67.65 42.2448 67.445 42.5874 67.199 42.5874C66.994 42.5874 66.912 42.7832 67.035 43.0769C67.486 43.9091 67.937 43.6154 68.142 42.3916C68.429 40.6294 66.912 39.2588 66.215 40.5804Z" fill="black"/>
<path d="M70.151 40.6294C71.422 41.4126 72.898 41.6084 73.103 40.972C73.226 40.5315 72.775 40.3357 71.463 40.2867C70.438 40.2867 69.864 40.4336 70.151 40.6294Z" fill="black"/>
<path d="M77.285 40.5804C77.162 40.8741 76.834 41.021 76.629 40.8741C76.178 40.4825 76.137 41.1678 76.629 42C77.08 42.8811 77.531 42.8321 78.023 41.8531C78.474 40.8741 77.777 39.6993 77.285 40.5804Z" fill="black"/>
<path d="M73.636 41.4126C72.857 42.2937 72.857 42.3916 73.39 43.6154C73.636 44.1049 74.169 44.5455 74.62 44.5455C75.276 44.5455 76.26 43.2727 76.26 42.3916C76.26 42 74.989 40.6294 74.62 40.6294C74.415 40.6294 73.964 40.972 73.636 41.4126ZM75.358 41.9511C76.096 43.6154 74.989 44.7902 73.882 43.4685C73.595 43.1259 73.554 42.6364 73.841 42C74.333 40.8741 74.907 40.8741 75.358 41.9511Z" fill="black"/>
<path d="M74.21 42.8322C74.21 43.2238 74.415 43.5664 74.62 43.5664C74.866 43.5664 75.03 43.2238 75.03 42.8322C75.03 42.4406 74.866 42.0979 74.62 42.0979C74.415 42.0979 74.21 42.4406 74.21 42.8322Z" fill="black"/>
<path d="M69.495 41.6574C69.946 42 70.561 42.6364 70.848 43.028C71.176 43.4686 71.299 43.5175 71.135 43.1748C70.602 41.9511 71.586 42.6364 72.242 43.9581C72.734 44.9371 72.816 45.5245 72.529 45.8672C72.201 46.2588 72.242 46.5035 72.611 46.7483C72.939 46.993 73.021 46.9441 72.816 46.6014C72.652 46.2098 73.021 46.1119 73.964 46.2098C74.743 46.2588 75.317 46.1609 75.194 45.9161C74.866 45.3287 75.604 45.4266 76.137 46.063C76.793 46.8462 78.474 46.4056 78.638 45.3776C78.72 44.9371 78.556 44.5455 78.31 44.5455C78.064 44.5455 77.982 44.7902 78.105 45.035C78.474 45.7693 77.244 46.1609 76.383 45.6224C75.727 45.1329 75.768 45.035 76.834 44.5455C77.777 44.1539 77.941 43.9091 77.531 43.4196C77.121 42.979 76.957 43.028 76.629 43.6644C75.891 45.2308 74.661 45.6713 73.554 44.7902C73.021 44.3986 72.57 43.6154 72.57 43.1259C72.57 42.5385 72.16 42.0979 71.463 41.9021C70.807 41.7063 69.946 41.4616 69.495 41.3147L68.675 41.07L69.495 41.6574Z" fill="black"/>
<path d="M78.884 41.7063C78.433 42.5874 78.392 44.0559 78.802 43.7622C78.966 43.6154 79.253 43.8601 79.376 44.2517C79.622 45.0349 80.36 44.8391 80.36 44.007C80.36 43.7133 80.114 43.6643 79.868 43.8601C79.499 44.1538 79.499 44.007 79.909 43.4196C80.483 42.5874 80.278 41.1189 79.581 41.1189C79.376 41.1189 79.048 41.4126 78.884 41.7063ZM79.704 42C79.827 42.2447 79.663 42.4405 79.335 42.4405C79.007 42.4405 78.843 42.2447 78.966 42C79.089 41.8042 79.253 41.6084 79.335 41.6084C79.417 41.6084 79.581 41.8042 79.704 42Z" fill="black"/>
<path d="M102.91 42.0979C102.541 42.3916 102.5 42.5874 102.787 42.5874C103.033 42.5874 103.402 42.3426 103.525 42.0979C103.853 41.5105 103.689 41.5105 102.91 42.0979Z" fill="black"/>
<path d="M104.345 43.0769C104.181 43.3706 104.222 43.8602 104.468 44.1539C104.714 44.4476 104.96 44.4476 105.165 44.056C105.329 43.7623 105.288 43.2727 105.042 42.979C104.796 42.6853 104.55 42.6853 104.345 43.0769Z" fill="black"/>
<path d="M106.805 43.5175C106.559 44.056 107.338 44.7902 107.707 44.3497C107.871 44.2028 107.707 44.056 107.379 44.056C106.928 44.056 106.928 43.9581 107.42 43.5664C107.789 43.2727 107.83 43.0769 107.543 43.0769C107.297 43.0769 106.969 43.2727 106.805 43.5175Z" fill="black"/>
<path d="M64.493 44.3986C63.755 44.8392 63.14 45.3776 63.14 45.6224C63.14 45.8182 62.73 46.014 62.197 46.014C60.639 46.014 56.99 47.4825 55.268 48.7553C52.562 50.8112 50.717 54.7273 49.856 60.2098C48.38 69.9511 47.847 72.007 45.346 78.5664C43.87 82.3357 42.64 85.7133 42.558 86.1049C42.353 87.1329 43.665 87.1329 44.239 86.056C44.649 85.2727 44.649 85.1259 44.239 85.4685C43.87 85.7133 43.829 85.5664 43.993 84.979C44.157 84.4895 44.28 83.9021 44.28 83.6574C44.28 83.3636 44.444 83.2657 44.649 83.4615C44.895 83.6084 45.018 83.3147 44.977 82.8252C44.977 82.3846 45.346 80.965 45.797 79.7902C46.289 78.5664 46.781 77.0979 46.945 76.4615C47.068 75.8741 47.396 75.4825 47.601 75.6783C47.847 75.8252 47.97 75.6783 47.929 75.3357C47.847 74.9441 48.011 74.1609 48.298 73.5734C48.585 72.986 48.872 71.7622 48.954 70.8811C49.077 70 49.364 68.1399 49.61 66.8182C50.184 63.8322 50.512 61.2378 50.512 60.1119C50.471 59.6224 50.635 59.1329 50.881 58.986C51.086 58.7902 51.25 58.007 51.25 57.2238C51.25 56.2448 51.414 55.8532 51.742 56.0979C52.029 56.2937 52.07 56.2448 51.906 55.8532C51.742 55.5594 52.111 54.3357 52.726 53.1119C53.915 50.9091 55.473 49.6364 56.293 50.2727C56.621 50.4685 56.58 50.3217 56.252 49.8322C55.924 49.3427 55.883 48.9021 56.129 48.7553C56.334 48.6084 56.621 48.7553 56.703 49.049C56.826 49.4406 56.949 49.3427 56.949 48.8042C56.99 48.3147 57.154 48.021 57.318 48.1678C57.523 48.3147 58.466 48.0699 59.409 47.6783C60.393 47.2867 61.418 47.042 61.664 47.1888C61.91 47.2867 61.787 47.4336 61.418 47.4336C60.393 47.4825 60.188 48.2657 61.008 49C61.623 49.5874 61.623 49.5874 61.213 48.9511C60.844 48.3636 60.926 48.1189 61.664 47.6783C62.566 47.1888 62.648 47.2867 63.181 49.6364C63.468 51.007 63.673 52.2797 63.632 52.4755C63.591 52.7203 63.837 52.8671 64.206 52.8671C64.534 52.8671 64.698 53.1119 64.575 53.4056C64.411 53.6993 64.821 54.4825 65.518 55.2168C66.174 55.9511 66.625 56.7832 66.543 57.1259C66.461 57.4196 66.584 57.8112 66.789 58.007C67.076 58.2028 67.117 57.958 66.953 57.4196C66.748 56.7343 66.953 56.7832 67.855 57.7622C68.511 58.4476 68.88 58.7413 68.757 58.4476C68.593 58.1539 68.839 57.5175 69.29 57.028C69.741 56.5385 70.11 56.3427 70.11 56.5874C70.11 56.8322 70.274 56.7832 70.438 56.4406C70.643 56 71.135 56.2937 72.078 57.3217C73.021 58.3497 73.39 58.5455 73.39 58.056C73.39 57.6154 73.554 57.2727 73.718 57.2727C73.882 57.2727 74.251 56.5874 74.538 55.7063L75.03 54.1399L76.26 55.5594C76.916 56.3427 77.408 57.0769 77.285 57.1748C77.162 57.3217 77.326 57.9091 77.654 58.5455C77.982 59.1329 78.269 60.014 78.31 60.5035C78.351 63.0979 78.351 63.979 78.146 65.2518C78.064 65.986 78.146 66.4755 78.351 66.2797C78.556 66.1329 78.72 66.6224 78.679 67.4056C78.597 68.1399 78.72 69.3147 78.884 69.9021C79.171 70.9301 79.13 71.028 78.392 70.5385C77.613 70.049 77.08 70.2448 77.08 71.028C77.08 71.2727 77.326 71.3217 77.654 71.1748C77.982 71.028 78.597 71.5175 79.089 72.3007C79.54 73.035 80.442 74.4056 81.057 75.3357C81.713 76.2657 82.205 77.2448 82.205 77.5385C82.246 77.8322 82.451 78.028 82.738 77.9301C83.025 77.8811 83.353 78.1259 83.476 78.5175C84.091 80.4266 90.2 86.6434 91.471 86.6434C92.332 86.6434 91.758 85.7622 90.733 85.4196C90.077 85.2238 88.601 83.8532 87.412 82.3357C82.984 76.7553 79.048 71.2727 79.417 71.1259C79.95 70.8811 79.212 60.7483 78.474 58.3986C78.146 57.2727 77.08 55.5105 76.137 54.4825C74.415 52.6224 74.169 51.986 75.276 52.2797C76.219 52.5245 78.269 50.5175 79.13 48.4615C80.032 46.3567 80.155 45.5245 79.581 45.5245C79.294 45.5245 78.72 47.0909 78.761 47.8741C78.761 48.3147 75.932 51.4965 75.44 51.5944C75.112 51.6923 74.456 51.9371 74.046 52.1329C72.324 53.014 69.495 49.5385 69.044 45.9161C68.88 44.8881 68.634 44.056 68.429 44.056C67.896 44.056 67.978 44.986 68.675 47.8252C69.454 51.007 71.012 52.8671 72.857 52.8671C74.005 52.8671 74.21 53.014 74.046 53.6993C73.923 54.1888 73.718 55.1678 73.554 55.9021C73.226 57.6154 72.857 57.6154 71.996 56.049C71.135 54.4825 70.643 54.5315 69.29 56.049L68.183 57.3217L66.83 55.4615C65.477 53.6504 63.878 49.8322 63.386 47.3846C63.14 46.2098 63.304 45.9161 64.78 45.035C65.682 44.4965 66.42 43.9091 66.42 43.8112C66.42 43.4196 65.887 43.5664 64.493 44.3986Z" fill="black"/>
<path d="M66.83 44.9371C66.83 46.6014 68.429 52.2308 69.249 53.4056C69.905 54.3846 70.151 54.4825 70.971 53.993L71.955 53.4056H70.889C70.069 53.3566 69.659 52.9161 69.003 51.2517C67.978 48.8531 67.322 46.014 67.527 45.1818C67.609 44.8881 67.486 44.4965 67.281 44.3007C67.035 44.1538 66.83 44.3986 66.83 44.9371Z" fill="black"/>
<path d="M104.55 46.2098C104.55 46.3077 104.837 46.5524 105.206 46.6993C105.534 46.8461 105.698 46.7972 105.575 46.5035C105.329 46.014 104.55 45.8182 104.55 46.2098Z" fill="black"/>
<path d="M70.725 46.9441C70.602 47.1888 70.643 47.5315 70.848 47.6783C71.053 47.8252 71.217 47.6294 71.217 47.2378C71.217 46.4056 71.094 46.3077 70.725 46.9441Z" fill="black"/>
<path d="M112.463 47.6294C111.725 48.2168 111.151 48.8532 111.11 49.0979C111.11 49.2937 111.766 48.9511 112.545 48.3637C113.324 47.7273 113.98 47.0909 113.98 46.8462C113.98 46.4056 114.021 46.4056 112.463 47.6294Z" fill="black"/>
<path d="M72.324 48.7063C73.308 49.5874 73.923 49.6853 73.718 48.8042C73.595 48.5105 73.103 48.1679 72.529 48.07C71.586 47.9721 71.586 47.9721 72.324 48.7063Z" fill="black"/>
<path d="M59.163 49.4895C61.254 50.958 61.951 56.4406 60.885 63.4895C60.516 66.1329 60.024 68.5315 59.86 68.7762C59.655 69.0699 61.213 71.6154 63.591 74.8951C65.805 77.979 67.896 81.0629 68.142 81.7483C69.208 84.1958 71.996 86.3497 73.349 85.7622C73.718 85.6154 73.8 85.7622 73.595 86.1538C73.39 86.5455 73.431 86.6923 73.718 86.4476C74.415 85.958 75.44 88.1119 75.44 90.0699C75.44 92.7133 74.661 95.6993 74.128 95.0629C73.8 94.6713 73.513 94.7692 73.103 95.3567C72.693 95.9441 72.447 95.993 72.324 95.6014C72.201 95.2587 71.832 95.1608 71.504 95.3077C71.176 95.4546 70.93 95.2587 70.93 94.7692C70.93 94.3287 70.643 93.986 70.315 93.986C69.741 93.986 69.536 93.2518 69.618 91.5385C69.7 89.8741 68.88 89.042 67.445 89.3846C66.42 89.5804 65.928 89.4336 65.313 88.7483C64.903 88.2098 62.238 84.9301 59.409 81.4056C52.931 73.3776 52.357 72.1049 52.029 64.8601L51.783 59.4755L51.742 64.4196C51.619 71.9091 51.947 72.6923 58.671 81.1608L64.329 88.2587L63.509 89.4825C63.099 90.1678 62.73 91.2937 62.73 92.0769C62.73 93.3007 62.525 93.4476 60.68 93.9371C56.211 95.1119 50.922 94.2308 47.191 91.7343C46.207 91.0979 45.346 90.5594 45.305 90.5594C45.264 90.5594 45.1 91.4895 44.936 92.6154C44.813 93.7902 44.567 95.2098 44.444 95.7972C44.034 97.5594 45.633 97.2168 47.314 95.2098C48.79 93.4476 49.856 92.8112 48.667 94.3776C48.257 94.8671 48.052 95.4056 48.134 95.5035C48.257 95.6504 47.355 96.2867 46.125 96.9231C44.321 97.951 43.911 98.3916 43.747 99.6154C43.665 100.399 42.64 107.79 41.492 116.014C39.155 132.364 37.105 150.133 35.465 167.902C34.891 174.217 34.153 180.678 33.866 182.196L33.333 184.986L37.679 187.287C43.747 190.469 46.002 191.497 46.248 191.203C46.453 190.909 42.394 184.252 40.631 181.951C39.606 180.58 39.606 180.531 40.344 179.895C40.754 179.504 41.246 179.112 41.451 179.063C41.615 178.965 44.198 164.035 47.15 145.874C52.316 114.399 52.603 112.783 53.628 111.755C55.063 110.336 55.35 110.385 55.35 111.853C55.35 113.713 58.138 165.357 58.63 172.259C58.876 175.587 59.245 178.622 59.491 178.965C59.778 179.357 59.819 180.825 59.614 183.028C59.491 184.937 59.409 186.65 59.45 186.846C59.491 187.091 60.27 187.287 61.131 187.385L62.73 187.531V185.622C62.73 184.252 63.263 182.636 64.616 179.846C66.461 175.979 77.039 150.72 87.74 124.483C91.307 115.867 93.685 110.531 94.218 110.189C94.833 109.797 107.174 109.65 136.202 109.65C180.482 109.65 179.498 109.699 183.393 107.105C184.377 106.42 186.427 104.706 187.944 103.238L190.691 100.643L190.568 89.9231L190.445 79.2028L189.297 78.028L188.149 76.8531H174.619C159.162 76.8531 160.392 76.5594 155.39 81.5035C153.709 83.1678 151.659 84.9301 150.88 85.4196C149.117 86.4965 141.45 87.2308 141.45 86.3007C141.45 85.1259 143.213 80.965 144.935 78.1259C146.903 74.7972 150.306 70.6364 150.675 71.0769C150.798 71.2238 150.634 71.7133 150.265 72.1538C149.896 72.5944 149.691 72.9371 149.855 72.9371C150.019 72.9371 149.814 73.3287 149.445 73.7692C149.035 74.2098 148.543 75.1888 148.338 75.972C148.133 76.7063 147.723 77.2448 147.477 77.1958C147.19 77.1469 147.067 77.5385 147.108 78.028C147.231 78.9091 147.19 78.9091 146.534 78.2727C146.124 77.8811 145.919 77.8322 146.083 78.1748C146.452 78.9091 145.222 81.3566 144.689 80.965C144.484 80.8182 144.361 80.965 144.402 81.3566C144.484 81.6993 144.279 81.9441 143.992 81.8462C143.664 81.7972 143.541 81.8951 143.664 82.1399C143.787 82.3846 143.418 83.3147 142.885 84.1958C141.655 86.1538 141.655 86.3497 142.598 85.7133C144.689 84.3916 151.905 72.007 151.126 71.0769C151.003 70.9301 151.167 70.3916 151.577 69.9021C152.192 69.0699 152.192 69.021 151.577 69.021C151.167 69.021 150.88 69.2657 150.88 69.5594C150.88 69.8042 150.675 69.9021 150.47 69.7552C150.224 69.5594 150.101 69.7063 150.142 70.049C150.224 70.3427 150.019 70.7343 149.691 70.8811C149.322 71.028 149.24 70.8811 149.445 70.4406C149.65 70.0979 149.24 70.2937 148.543 70.8811C146.329 72.7413 143.008 77.4895 141.942 80.2308C141.081 82.4336 140.835 83.5594 140.671 86.2518C140.63 86.4965 139.728 86.6434 138.621 86.6434H136.612L134.931 83.3147C133.332 80.1329 132.922 78.2238 133.578 77.0979C133.742 76.8042 134.603 76.3147 135.505 75.972C137.514 75.2867 139.851 73.035 141.45 70.2448C142.106 69.1189 143.869 66.7692 145.345 65.1049C148.215 61.7762 148.707 60.5524 146.944 60.8951C144.976 61.3357 142.065 63.7832 138.785 67.7483C135.095 72.2518 132.922 76.2657 132.758 78.9091C132.635 80.6713 132.635 80.6713 131.528 79.986C130.913 79.5944 130.093 79.4476 129.724 79.6434C129.273 79.8392 129.109 79.7902 129.273 79.4476C129.642 78.7133 126.157 77.8322 122.959 77.8322C118.777 77.8322 110.782 80.2308 111.356 81.3077C111.479 81.5525 111.315 81.6014 110.987 81.4546C110.659 81.3077 110.29 81.5525 110.167 81.9441C109.962 82.4825 110.167 82.7273 110.823 82.7273C111.315 82.7273 113.324 82.8741 115.292 83.021C119.105 83.3636 125.173 82.6783 129.437 81.4546C132.43 80.5734 132.881 80.7692 134.808 84.2448L136.12 86.6434H114.185H92.25V88.9441C92.25 90.6084 91.963 91.6364 91.184 92.8601C89.749 95.1119 89.421 94.5734 90.774 92.1748C91.84 90.3147 92.168 87.9161 91.43 87.3776C91.184 87.1818 91.02 87.7203 91.02 88.6993C91.02 89.5804 90.61 91.3427 90.118 92.5664C89.339 94.4755 89.011 94.8671 88.068 94.8182C87.412 94.8182 86.92 94.6224 86.92 94.3776C86.92 94.1818 86.633 93.986 86.346 93.986C85.813 93.986 85.813 93.6434 86.387 91.4406C87.002 88.9441 86.961 88.8462 86.1 88.014C85.608 87.5245 85.403 87.1329 85.649 87.1329C85.895 87.1329 86.1 86.9371 86.1 86.6434C86.1 86.3986 85.813 86.3007 85.526 86.4476C85.198 86.5944 84.87 87.4755 84.788 88.4056C84.624 90.6084 83.927 90.6084 83.476 88.4056L83.066 86.6434H78.925C74.948 86.6434 74.743 86.5944 74.333 85.5175C73.964 84.6364 73.595 84.3916 72.611 84.4895C71.709 84.5385 70.93 84.1958 70.069 83.3636C68.634 81.9441 67.814 80.2797 68.306 79.8392C68.511 79.6923 69.208 78.1748 69.864 76.4615C70.52 74.7972 71.217 73.4266 71.381 73.4266C71.873 73.4266 75.809 66.8671 76.465 64.958C77.162 62.9021 77.285 59.3776 76.67 57.4685C76.014 55.5105 75.809 56.2448 76.342 58.6923C77.039 61.9231 76.26 65.1049 73.759 69.1189C72.611 70.9301 71.299 72.7413 70.889 73.1329C69.946 73.9161 67.978 78.2238 68.265 78.8112C68.388 79.0559 68.306 79.3497 68.142 79.4965C67.732 79.7902 65.805 77.4406 62.648 72.8392L60.434 69.5594L61.172 65.2517C61.992 60.4545 62.115 55.4615 61.5 52.8182C61.049 50.958 59.737 48.951 58.917 48.951C58.63 48.951 58.753 49.1958 59.163 49.4895ZM145.55 62.7552C145.058 63.3916 144.32 64.6154 143.869 65.4476C143.377 66.3776 142.68 67.0629 142.229 67.0629C141.778 67.0629 141.491 67.2587 141.655 67.5525C141.778 67.7972 141.532 68.4336 141.04 69.021C140.589 69.5594 140.179 70.1469 140.179 70.3427C140.056 71.1259 139.195 72.4476 138.826 72.4476C138.662 72.4476 138.703 72.1538 138.949 71.7622C139.318 71.2727 139.236 70.9301 138.703 70.4406C138.047 69.8042 138.006 69.8531 138.498 70.5874C138.867 71.1259 138.908 71.4685 138.58 71.7133C138.334 71.8601 138.252 72.2028 138.375 72.4476C138.498 72.6923 138.088 73.1818 137.473 73.5245C136.817 73.9161 135.792 74.6014 135.177 75.1399L134.029 76.021L134.972 74.1119C136.325 71.3706 140.835 65.7902 143.5 63.5874C146.083 61.4825 146.78 61.1888 145.55 62.7552ZM146.985 74.014C145.714 75.7273 143.992 78.4685 143.172 80.1329C141.409 83.8042 140.958 83.8531 142.516 80.2308C143.418 78.0769 148.502 70.979 149.117 70.979C149.24 70.979 148.256 72.3497 146.985 74.014ZM180.933 78.028C186.14 77.8322 187.78 77.9301 187.78 78.3706C187.78 78.7133 187.903 78.8112 188.067 78.6643C188.231 78.4685 188.559 78.958 188.846 79.7902C189.666 82.042 189.584 100.203 188.805 101.182C188.477 101.573 188.026 101.769 187.78 101.573C187.534 101.378 187.493 101.622 187.657 102.161C187.78 102.65 187.78 102.895 187.616 102.699C187.411 102.504 186.632 103.091 185.853 103.923C185.074 104.804 184.295 105.538 184.172 105.538C182.86 105.881 182.081 106.42 182.327 106.86C182.491 107.203 182.327 107.252 181.835 107.007C181.384 106.811 180.81 107.007 180.359 107.497C179.621 108.28 176.423 108.329 137.924 108.231C107.543 108.182 95.858 108.28 94.833 108.72C93.849 109.112 93.029 109.944 92.209 111.51C91.594 112.734 91.143 113.909 91.266 114.154C91.389 114.399 91.266 114.497 90.979 114.448C90.733 114.35 90.405 114.594 90.282 114.986C90.159 115.427 90.282 115.524 90.569 115.28C90.938 115.035 90.938 115.182 90.569 115.916C90.282 116.504 89.831 116.797 89.585 116.65C89.38 116.455 89.298 116.504 89.462 116.748C89.626 116.944 89.544 117.483 89.257 117.874C88.847 118.51 88.888 118.559 89.298 118.266C89.708 117.972 89.708 118.266 89.216 119.343C88.847 120.175 88.396 121.007 88.15 121.154C87.904 121.35 87.863 121.741 88.027 122.035C88.232 122.427 88.109 122.427 87.658 122.035C87.043 121.399 86.51 121.643 86.51 122.573C86.51 122.867 86.674 122.818 86.879 122.476C87.166 121.937 87.248 121.937 87.453 122.573C87.617 123.014 87.535 123.357 87.33 123.357C87.084 123.357 86.92 123.797 86.92 124.336C86.92 124.874 86.715 125.315 86.469 125.315C86.264 125.315 86.182 125.51 86.305 125.804C86.428 126.049 86.346 126.294 86.141 126.294C85.895 126.294 85.69 126.49 85.69 126.734C85.69 127.958 83.148 133.636 82.738 133.343C82.451 133.147 82.41 133.196 82.574 133.538C82.738 133.832 82.533 134.811 82.123 135.692C81.754 136.573 81.385 137.504 81.385 137.797C81.344 138.042 81.098 138.238 80.811 138.14C80.442 138.042 80.401 138.336 80.565 139.07C80.77 139.804 80.729 140 80.36 139.755C80.073 139.559 79.95 139.706 80.032 140.294C80.114 140.881 79.95 141.175 79.622 141.077C79.294 141.028 79.171 141.175 79.294 141.42C79.622 142.007 78.72 144.504 78.023 145.042C77.777 145.238 77.244 146.608 76.875 148.077C76.465 149.839 76.055 150.671 75.768 150.476C75.522 150.28 75.44 150.329 75.563 150.622C75.891 151.259 74.825 154.538 73.964 155.517C73.636 155.909 73.39 156.448 73.39 156.692C73.39 156.986 73.226 157.035 72.98 156.888C72.734 156.692 72.693 156.937 72.857 157.427C72.98 157.916 72.939 158.161 72.734 158.014C72.529 157.818 72.324 158.21 72.324 158.846C72.242 160.168 70.315 165.259 69.7 165.699C69.126 166.14 69.208 165.308 69.823 164.476C70.233 163.888 70.192 163.888 69.618 164.427C69.126 164.867 69.003 165.455 69.126 166.434C69.331 167.51 69.167 167.951 68.511 168.343C68.019 168.685 67.65 169.175 67.65 169.517C67.65 169.86 67.814 169.811 68.06 169.371C68.265 168.979 68.47 168.881 68.47 169.175C68.47 169.469 68.101 170.203 67.65 170.839C67.199 171.427 66.953 172.161 67.117 172.455C67.281 172.748 67.117 172.846 66.707 172.65C66.338 172.504 65.928 172.552 65.805 172.846C65.641 173.091 65.682 173.238 65.887 173.189C66.215 173.042 66.42 173.434 66.42 174.315C66.42 174.559 66.174 174.657 65.928 174.462C65.641 174.266 65.518 174.315 65.723 174.51C65.887 174.755 65.723 175.49 65.354 176.175C64.985 176.811 64.247 178.622 63.714 180.091L62.771 182.832L62.853 138.287L62.935 93.7413L63.837 93.7902C64.329 93.7902 64.657 93.6434 64.534 93.3986C64.411 93.2028 64.001 93.007 63.632 93.007C63.058 93.007 63.058 92.9091 63.509 92.5664C63.796 92.3217 63.919 91.8811 63.796 91.5874C63.632 91.2937 63.714 91.049 63.96 91.049C64.206 91.049 64.288 90.8042 64.124 90.5105C63.96 90.1678 64.165 90.1678 64.78 90.5594C65.518 91.049 65.641 91 65.395 90.5105C65.149 90.0699 65.272 89.972 65.764 90.2168C66.174 90.4126 66.912 90.5594 67.445 90.5594C68.183 90.5594 68.429 90.9021 68.634 92.4685C68.798 93.7902 69.208 94.6224 69.987 95.2587C71.217 96.2378 73.595 96.5804 74.702 95.8951C75.522 95.3567 76.793 90.4126 76.465 89.042C76.219 88.2098 76.424 88.1119 79.007 88.1119C81.713 88.1119 81.836 88.1608 83.066 89.9231C84.255 91.5874 84.419 91.6853 84.993 90.951C85.362 90.5594 85.526 90.021 85.362 89.8252C85.198 89.5804 85.28 89.5804 85.567 89.7762C86.1 90.1189 85.854 91.5385 85.239 91.5385C85.075 91.5385 84.993 91.9301 85.116 92.3706C85.321 93.1049 85.28 93.1538 84.911 92.5175C84.665 92.1259 84.46 91.979 84.46 92.2238C84.46 92.5175 84.87 93.2518 85.403 93.8881C85.895 94.5734 86.059 94.965 85.813 94.7692C85.526 94.5734 85.28 94.5734 85.28 94.7203C85.28 94.8671 85.813 95.2587 86.51 95.5035C87.166 95.7972 87.617 96.2378 87.494 96.5315C87.207 97.0699 89.052 95.8951 89.421 95.3077C89.544 95.0629 89.749 94.9161 89.831 94.965C90.405 95.2098 91.553 94.1329 92.086 92.8601C92.578 91.7343 92.824 91.5385 93.111 92.0769C93.357 92.5664 93.48 92.3706 93.48 91.3916C93.48 90.4615 93.316 90.1189 92.988 90.3636C92.701 90.5594 92.66 90.5105 92.824 90.1678C92.988 89.8252 93.439 89.5804 93.808 89.5315C94.382 89.5315 94.382 89.4336 93.726 89.1399C93.152 88.8951 93.07 88.6504 93.398 88.4056C93.685 88.2098 103.238 88.0629 114.636 88.0629C128.74 88.1119 135.587 87.965 135.956 87.5734C136.325 87.1818 136.612 87.3287 136.981 88.1608C137.432 89.1888 137.473 89.2378 138.006 88.3566C138.416 87.7203 138.867 87.5734 139.81 87.8182C140.507 87.965 140.999 87.9161 140.876 87.6713C140.753 87.4266 141.409 87.4755 142.393 87.7203C144.648 88.3566 148.625 87.965 150.552 86.9371C151.413 86.4965 152.233 86.1538 152.397 86.2028C152.52 86.2028 152.807 85.9091 153.012 85.4685C153.217 85.028 153.668 84.6853 154.037 84.6853C154.406 84.6853 154.57 84.5385 154.447 84.3427C153.996 83.8531 156.251 81.3077 156.866 81.6014C157.194 81.7483 157.604 81.3566 157.85 80.5734C158.096 79.7413 158.424 79.3986 158.875 79.5944C159.203 79.7902 159.49 79.6434 159.49 79.2518C159.49 78.9091 159.613 78.8112 159.736 78.958C159.9 79.1538 159.818 79.5944 159.531 79.986C159.162 80.5245 159.203 80.7203 159.695 80.965C160.064 81.1119 160.228 81.5035 160.064 81.7972C159.9 82.1888 159.941 82.2378 160.269 82.042C160.638 81.7483 160.638 81.5035 160.31 81.014C159.859 80.3287 160.392 78.3706 161.048 78.2727C161.212 78.2727 161.745 78.1748 162.237 78.1259C162.77 78.028 163.262 77.8811 163.344 77.7832C163.426 77.6853 165.886 77.7343 168.797 77.9301C171.667 78.0769 177.12 78.1259 180.933 78.028ZM126.69 78.7622C128.125 79.1049 127.51 79.2028 123.738 79.2518C119.556 79.3007 115.251 79.986 112.545 81.014C111.889 81.2587 111.848 81.2587 112.381 80.8182C112.955 80.3776 117.014 79.1538 119.72 78.6643C121.483 78.3217 124.763 78.3706 126.69 78.7622ZM128.945 80.2308C130.708 80.6224 130.831 80.5734 123.205 81.6014C122.549 81.6993 119.679 81.8462 116.85 81.9441C111.971 82.0909 111.807 82.0909 113.57 81.4056C117.588 79.9371 125.091 79.3497 128.945 80.2308ZM47.068 93.1049C47.683 93.8392 46.945 95.4546 45.961 95.4546C45.387 95.4546 45.264 95.1608 45.428 93.986C45.592 92.4685 46.248 92.1259 47.068 93.1049ZM52.562 95.1608C52.808 94.965 52.89 95.014 52.767 95.3077C52.48 95.8951 59.04 95.8462 60.68 95.2587L61.705 94.9161L61.623 135.692C61.582 165.993 61.705 176.664 62.033 177.154C62.443 177.741 62.402 177.79 61.951 177.497C61.541 177.154 61.459 177.35 61.705 178.133C61.828 178.671 61.787 179.161 61.582 179.161C61.418 179.161 61.213 178.573 61.213 177.79C61.172 177.056 61.049 174.462 60.926 172.063C60.762 169.615 60.27 160.07 59.819 150.769C59.368 141.469 58.917 132.755 58.835 131.434C58.753 130.063 58.589 126.196 58.425 122.769C57.851 110.483 57.892 109.846 59.655 107.497C60.967 105.734 61.049 105.441 60.475 104.804C59.901 104.119 59.655 104.315 57.81 106.713C56.703 108.182 55.76 109.601 55.76 109.895C55.76 110.14 55.596 110.091 55.391 109.699C55.063 109.112 54.735 109.21 53.505 110.385C51.824 111.902 50.963 113.909 50.676 117.091C50.553 118.266 49.979 121.839 49.405 125.07C48.38 130.748 48.134 132.51 47.724 136.084C47.642 137.014 47.232 138.874 46.904 140.147C46.535 141.469 46.33 142.643 46.453 142.79C46.576 142.937 46.535 143.573 46.33 144.21C46.084 144.895 45.551 147.979 45.059 151.161C42.148 170.594 40.836 177.594 39.811 178.867C39.319 179.455 38.95 180.287 38.95 180.678C38.95 181.608 41.246 185.573 41.574 185.182C41.697 184.986 41.82 185.231 41.82 185.622C41.82 186.063 42.066 186.504 42.394 186.65C42.681 186.797 43.05 187.385 43.173 187.923C43.378 188.902 43.378 188.902 41.656 187.874C40.754 187.287 39.811 186.797 39.565 186.748C39.36 186.748 38.417 186.308 37.515 185.818C36.613 185.28 35.711 184.839 35.465 184.839C35.014 184.79 34.891 177.203 35.342 177.203C35.465 177.203 35.588 176.028 35.547 174.608C35.547 173.238 35.834 169.322 36.203 165.944C36.572 162.566 36.982 158.259 37.105 156.399C37.228 154.49 37.515 151.699 37.761 150.182C38.089 147.832 38.499 144.21 39.155 138.287C39.196 137.748 39.36 136.329 39.524 135.105C39.647 133.881 40.057 130.455 40.385 127.517C40.754 124.531 41.369 120.028 41.82 117.483C42.558 112.93 43.091 109.161 43.296 106.713C43.337 106.028 43.419 105.392 43.46 105.245C43.501 105.098 43.583 104.755 43.624 104.51C43.665 104.217 43.87 103.14 44.075 102.063C44.28 100.986 44.403 99.8601 44.362 99.5664C44.321 99.2238 44.813 98.7832 45.469 98.4895C46.125 98.1958 47.273 97.2168 48.011 96.3357C49.282 94.8182 49.528 94.6713 50.758 95.0629C51.496 95.3077 52.275 95.3567 52.562 95.1608ZM58.876 107.545C57.646 109.112 57.4 109.748 57.4 111.608C57.4 112.832 58.138 128.448 59.04 146.364C59.942 164.231 60.557 178.965 60.475 179.063C60.147 179.504 59.901 176.762 59.45 167.657C59.204 162.517 58.466 147.392 57.81 133.979L56.58 109.601L58.302 107.154C59.245 105.783 60.106 104.902 60.188 105.196C60.27 105.49 59.655 106.566 58.876 107.545ZM77.941 146.706C77.449 147.685 77.367 147.392 77.736 146.119C77.9 145.678 78.105 145.434 78.187 145.58C78.31 145.678 78.187 146.217 77.941 146.706ZM61.746 181.51C61.869 183.371 61.5 185.524 61.049 185.524C60.639 185.524 60.557 182.441 60.926 180.727C61.254 179.357 61.623 179.699 61.746 181.51Z" fill="black"/>
<path d="M139.605 69.021C139.482 69.3147 139.646 69.3636 139.974 69.2168C140.712 68.8741 140.835 68.5315 140.261 68.5315C140.015 68.5315 139.728 68.7273 139.605 69.021Z" fill="black"/>
<path d="M158.547 81.3077C158.834 81.6503 159.162 81.7972 159.285 81.6503C159.408 81.5035 159.203 81.2098 158.793 81.0629C158.219 80.7692 158.178 80.8182 158.547 81.3077Z" fill="black"/>
<path d="M188.026 81.6014C187.78 82.2867 187.821 82.3357 188.231 81.8951C188.518 81.5524 188.641 81.1608 188.518 81.014C188.395 80.8671 188.149 81.1119 188.026 81.6014Z" fill="black"/>
<path d="M155.8 82.4825C155.431 82.972 155.431 83.2168 155.759 83.2168C156.005 83.2168 156.21 82.972 156.21 82.6783C156.21 82.4335 156.415 82.3356 156.702 82.5315C156.989 82.7273 157.03 82.6783 156.866 82.3356C156.497 81.6014 156.415 81.6014 155.8 82.4825Z" fill="black"/>
<path d="M154.365 85.6643C154.242 85.9581 154.406 86.007 154.734 85.8601C155.472 85.5175 155.595 85.1748 155.021 85.1748C154.775 85.1748 154.488 85.3706 154.365 85.6643Z" fill="black"/>
<path d="M135.382 89.042C134.931 89.3846 134.931 89.4825 135.382 89.7273C135.751 89.8741 135.997 89.6783 135.997 89.2867C135.997 88.8951 135.956 88.6014 135.956 88.6014C135.915 88.6014 135.669 88.7972 135.382 89.042Z" fill="black"/>
<path d="M140.958 88.944C141.245 89.0909 141.614 89.0419 141.737 88.8951C141.901 88.7482 141.655 88.6014 141.204 88.6503C140.753 88.6503 140.63 88.7972 140.958 88.944Z" fill="black"/>
<path d="M94.3 90.7552C94.3 91.1468 94.464 91.5874 94.669 91.7343C94.874 91.9301 94.956 91.5874 94.833 91.0489C94.587 89.9231 94.3 89.7762 94.3 90.7552Z" fill="black"/>
<path d="M85.69 96.4825C85.69 96.7273 85.895 96.8252 86.1 96.6783C86.346 96.5315 86.51 96.2867 86.51 96.1399C86.51 96.042 86.346 95.9441 86.1 95.9441C85.895 95.9441 85.69 96.1888 85.69 96.4825Z" fill="black"/>
<path d="M73.185 96.9231C73.021 97.2168 72.734 97.2657 72.488 97.1189C72.201 96.9231 72.16 97.021 72.324 97.3636C72.57 97.8042 72.775 97.8042 73.226 97.3636C73.8 96.8252 73.964 96.4336 73.636 96.4336C73.513 96.4336 73.308 96.6783 73.185 96.9231Z" fill="black"/>
<path d="M74.292 97.2168C74.005 97.6084 73.964 97.9021 74.169 97.9021C74.579 97.9021 75.194 96.972 74.989 96.6783C74.907 96.6294 74.579 96.8252 74.292 97.2168Z" fill="black"/>
<path d="M83.23 129.476C83.23 129.72 83.435 130.308 83.64 130.699C83.845 131.091 84.05 131.189 84.05 130.944C84.05 130.65 83.845 130.112 83.64 129.72C83.435 129.329 83.23 129.182 83.23 129.476Z" fill="black"/>
<path d="M70.766 161.196C70.889 161.685 71.135 161.93 71.258 161.783C71.381 161.636 71.258 161.245 70.971 160.902C70.561 160.462 70.52 160.51 70.766 161.196Z" fill="black"/>
<path d="M119.228 81.6014C119.515 81.7482 119.884 81.6993 120.007 81.5524C120.171 81.4056 119.925 81.2587 119.474 81.3077C119.023 81.3077 118.9 81.4545 119.228 81.6014Z" fill="black"/>
<path d="M109.593 49.4406C109.06 49.6853 108.65 49.979 108.65 50.1259C108.65 50.4685 110.29 49.8322 110.536 49.3916C110.782 48.9021 110.782 48.9021 109.593 49.4406Z" fill="black"/>
<path d="M62.115 49.9301C62.238 50.1748 62.443 50.4196 62.566 50.4196C62.648 50.4196 62.73 50.1748 62.73 49.9301C62.73 49.6364 62.525 49.4406 62.279 49.4406C62.074 49.4406 61.992 49.6364 62.115 49.9301Z" fill="black"/>
<path d="M95.776 50.5175C95.407 52.1818 95.489 52.8671 95.981 52.8671C96.227 52.8671 96.309 52.5245 96.186 52.035C96.022 51.5944 96.145 51.0559 96.432 50.8601C96.801 50.5664 96.842 50.3217 96.514 49.9301C96.186 49.5385 95.981 49.6853 95.776 50.5175Z" fill="black"/>
<path d="M75.276 50.5175C75.399 50.7622 75.686 50.8112 75.891 50.6643C76.424 50.2238 76.342 50.0769 75.645 50.0769C75.317 50.0769 75.153 50.2727 75.276 50.5175Z" fill="black"/>
<path d="M99.753 51.3986C99.015 51.9371 98.4 52.5245 98.4 52.6713C98.4 52.8182 98.892 52.5734 99.548 52.0839C100.327 51.3986 101.721 51.0559 104.55 50.8601L108.445 50.6154L104.755 50.5175C101.721 50.4196 100.819 50.6154 99.753 51.3986Z" fill="black"/>
<path d="M59.573 52.6224C59.573 53.014 59.737 53.2098 59.942 53.0629C60.147 52.9161 60.188 52.5734 60.065 52.3287C59.696 51.6923 59.573 51.7902 59.573 52.6224Z" fill="black"/>
<path d="M97.17 53.1119C96.719 53.7483 96.76 53.7972 97.334 53.5525C97.703 53.4056 97.99 53.0629 97.99 52.8182C97.99 52.1818 97.744 52.2797 97.17 53.1119Z" fill="black"/>
<path d="M95.366 54.1399C94.997 55.3147 95.079 55.5105 95.735 54.8252C96.432 54.1399 96.555 53.3566 95.981 53.3566C95.776 53.3566 95.489 53.6993 95.366 54.1399Z" fill="black"/>
<path d="M114.062 58.3497C115.005 62.6084 116.481 66.6713 117.957 68.9231C119.228 70.979 123.205 73.2797 126.772 74.0629C129.109 74.6014 129.396 74.7972 130.708 77C131.487 78.2727 132.225 79.2518 132.307 79.1049C132.43 78.958 131.897 77.7832 131.077 76.5105C129.97 74.6504 129.765 73.965 130.093 73.3776C131.446 70.8322 124.64 60.9441 119.433 57.8112C117.998 56.979 116.727 56.3427 116.563 56.3916C116.358 56.4406 115.661 56.0979 114.923 55.6573C114.185 55.2168 113.529 54.8252 113.447 54.8252C113.324 54.8252 113.611 56.4406 114.062 58.3497ZM118.326 59.8671C121.319 63.1958 128.863 73.4266 128.576 73.7692C128.494 73.9161 128.002 73.7203 127.51 73.4266C127.018 73.1329 126.362 72.986 126.034 73.1329C125.665 73.2797 125.542 73.1818 125.665 72.9371C125.788 72.6434 125.706 72.3986 125.501 72.3986C125.255 72.3497 124.886 72.2518 124.64 72.2028C124.435 72.1539 123.943 72.0559 123.574 72.007C123.205 72.007 123.082 71.7133 123.246 71.3706C123.451 71.028 123.287 70.9301 122.754 71.0769C121.975 71.3217 120.786 70.3427 121.237 69.8532C121.36 69.7063 121.114 69.6573 120.663 69.8042C119.474 70.1469 118.531 68.8741 116.85 64.7622C115.907 62.3636 115.825 61.972 116.563 62.4615C116.891 62.7552 116.891 62.6084 116.481 62.021C116.194 61.5804 116.03 60.8951 116.153 60.5035C116.317 60.014 116.194 59.8671 115.866 60.014C115.579 60.1608 115.21 59.9161 115.087 59.5245C114.923 59.0839 115.046 58.7413 115.333 58.7413C115.661 58.7413 115.702 58.5944 115.374 58.3497C115.128 58.1539 114.677 57.5175 114.431 56.8811C113.939 55.8042 113.98 55.7552 114.759 56.2937C115.251 56.5874 116.85 58.2028 118.326 59.8671ZM117.67 57.5175C117.957 57.958 118.285 58.1539 118.408 58.0559C118.49 57.9091 118.818 58.0559 119.105 58.3986C119.351 58.7413 120.089 59.4266 120.704 59.965C121.319 60.5035 122.344 61.4336 122.918 62.021C123.533 62.6573 124.189 63.1469 124.394 63.1469C124.599 63.1469 124.64 63.2937 124.517 63.4406C124.394 63.6364 124.722 64.1748 125.255 64.7133C125.829 65.2518 126.198 65.8881 126.034 66.1329C125.911 66.3776 126.034 66.5245 126.362 66.4755C126.649 66.3776 126.854 66.6224 126.772 66.965C126.731 67.3566 127.018 67.7483 127.469 67.8951C127.92 68.042 128.166 68.4336 128.084 68.7762C127.961 69.1189 128.166 69.5105 128.535 69.7063C128.945 69.8532 129.15 70.3427 129.027 70.6853C128.904 71.0769 128.986 71.4685 129.232 71.5664C129.478 71.6643 129.601 72.1539 129.519 72.6923C129.396 73.3776 128.617 72.5455 126.28 69.2168C124.599 66.8182 121.729 63.049 119.884 60.7972C118.08 58.5944 116.686 56.7832 116.85 56.7832C117.014 56.7832 117.383 57.1259 117.67 57.5175Z" fill="black"/>
<path d="M118.531 62.5105C118.818 63.0979 119.146 63.4895 119.269 63.3426C119.392 63.2447 119.146 62.7552 118.736 62.2657C118.039 61.4825 117.998 61.4825 118.531 62.5105Z" fill="black"/>
<path d="M117.096 64.2727C117.219 64.7622 117.465 65.007 117.588 64.8601C117.711 64.7133 117.588 64.3217 117.301 63.979C116.891 63.5385 116.85 63.5874 117.096 64.2727Z" fill="black"/>
<path d="M117.67 65.7902C117.67 65.8881 117.998 66.2797 118.408 66.6224C119.023 67.2587 119.064 67.2098 118.531 66.4266C117.998 65.6433 117.67 65.3986 117.67 65.7902Z" fill="black"/>
<path d="M123.779 68.1399C124.353 69.0699 123.861 69.3636 123.205 68.5315C122.959 68.2867 122.795 68.4825 122.795 69.2168C122.795 69.8042 123 70.3427 123.287 70.3427C123.574 70.3427 123.656 70.0979 123.533 69.8531C123.369 69.5594 123.533 69.4615 123.902 69.6573C124.722 70 124.64 68.7762 123.82 67.8951C123.328 67.4056 123.328 67.4545 123.779 68.1399Z" fill="black"/>
<path d="M118.9 68.2378C118.9 68.3357 119.228 68.7273 119.638 69.0699C120.253 69.7063 120.294 69.6573 119.761 68.8741C119.228 68.0909 118.9 67.8462 118.9 68.2378Z" fill="black"/>
<path d="M111.643 56.5385C111.643 56.9301 111.807 57.1259 112.012 56.979C112.217 56.8322 112.258 56.4895 112.135 56.2447C111.766 55.6084 111.643 55.7063 111.643 56.5385Z" fill="black"/>
<path d="M59.327 62.1189C59.163 62.9511 59.204 63.1469 59.532 62.7553C59.737 62.5105 59.86 61.972 59.778 61.6294C59.655 61.2378 59.491 61.4825 59.327 62.1189Z" fill="black"/>
<path d="M140.589 63C140.056 63.7832 140.097 63.8321 140.753 63.1958C141.122 62.8531 141.45 62.4615 141.45 62.3636C141.45 61.972 141.122 62.2168 140.589 63Z" fill="black"/>
<path d="M138.211 64.2238C138.539 65.007 138.744 65.056 139.236 64.5665C139.933 63.8811 139.728 63.4895 138.58 63.3916C137.924 63.3427 137.883 63.4895 138.211 64.2238Z" fill="black"/>
<path d="M136.407 67.1119C136.694 67.4546 137.022 67.6014 137.145 67.4546C137.268 67.3077 137.063 67.014 136.653 66.8671C136.079 66.5734 136.038 66.6224 136.407 67.1119Z" fill="black"/>
<path d="M115.497 68.2867C115.333 68.6783 115.374 69.0699 115.538 69.2168C115.702 69.3636 115.907 69.021 115.907 68.4825C115.989 67.3566 115.784 67.2587 115.497 68.2867Z" fill="black"/>
<path d="M135.505 68.5315C135.382 68.8252 135.546 68.8741 135.874 68.7273C136.612 68.3846 136.735 68.042 136.161 68.042C135.915 68.042 135.628 68.2378 135.505 68.5315Z" fill="black"/>
<path d="M69.618 70.8322C69.864 70.9301 69.987 71.3217 69.864 71.5664C69.7 71.9091 69.782 71.9581 70.069 71.7622C70.602 71.3217 70.274 70.4895 69.577 70.5385C69.208 70.5385 69.249 70.6364 69.618 70.8322Z" fill="black"/>
<path d="M64.083 72.1049C64.083 72.4965 64.329 72.7902 64.657 72.7902C65.026 72.7902 65.067 72.5944 64.739 72.1049C64.493 71.7623 64.247 71.4685 64.165 71.4685C64.124 71.4685 64.083 71.7623 64.083 72.1049Z" fill="black"/>
<path d="M74.907 72.4965C75.194 72.9371 75.276 73.4755 75.112 73.7203C74.948 73.9161 75.153 73.8182 75.563 73.4755C75.932 73.1329 76.26 72.5454 76.219 72.2517C76.219 71.958 76.096 71.958 75.973 72.3496C75.809 72.8392 75.645 72.8392 75.112 72.3496C74.497 71.8112 74.497 71.8112 74.907 72.4965Z" fill="black"/>
<path d="M72.57 73.1818C71.996 74.014 72.078 74.1608 74.866 78.3217C77.08 81.6503 78.638 83.4615 80.36 84.8322C81.713 85.958 82.041 85.8601 81.836 84.5384C81.754 83.951 81.918 83.1189 82.164 82.7273C82.574 82.0909 82.533 82.0909 81.918 82.6783C81.508 83.021 81.303 83.5594 81.467 83.8042C81.59 84.0979 81.467 84.1958 81.139 84.0979C80.811 83.951 80.606 83.6084 80.647 83.3147C80.729 82.972 80.483 82.8741 80.073 83.0699C79.663 83.2657 79.499 83.1678 79.663 82.8741C79.827 82.5804 79.622 82.3846 79.212 82.4336C78.843 82.4336 78.556 82.1888 78.638 81.8461C78.679 81.4545 78.556 81.3077 78.31 81.5035C77.654 81.993 77.326 80.3287 77.941 79.3986C78.351 78.8112 78.228 78.8112 77.531 79.5454C76.916 80.1329 76.629 80.2797 76.711 79.8391C76.834 79.4965 76.383 78.4685 75.768 77.6364C75.153 76.8042 74.21 75.5315 73.636 74.7972C72.98 73.8671 72.816 73.3287 73.103 72.986C73.349 72.6923 73.431 72.4475 73.308 72.4475C73.185 72.4475 72.857 72.7902 72.57 73.1818Z" fill="black"/>
<path d="M60.803 73.6713C60.803 74.0629 60.967 74.2587 61.172 74.1119C61.377 73.965 61.418 73.6224 61.295 73.3776C60.926 72.7413 60.803 72.8392 60.803 73.6713Z" fill="black"/>
<path d="M76.219 73.7692C75.686 74.5525 75.727 74.6014 76.383 73.965C77.039 73.3287 77.244 72.9371 76.916 72.9371C76.834 72.9371 76.506 73.3287 76.219 73.7692Z" fill="black"/>
<path d="M74.866 75.042C74.989 75.5315 75.235 75.7762 75.358 75.6294C75.481 75.4825 75.358 75.0909 75.071 74.7482C74.661 74.3077 74.62 74.3566 74.866 75.042Z" fill="black"/>
<path d="M56.99 75.3846C57.4 75.6783 57.359 75.8252 56.949 76.021C56.621 76.1678 56.58 76.3147 56.826 76.3147C57.031 76.3636 57.564 76.0699 57.933 75.7273C58.589 75.1888 58.548 75.1399 57.564 75.042C56.867 75.042 56.662 75.1399 56.99 75.3846Z" fill="black"/>
<path d="M66.42 76.0699C66.42 76.1678 66.748 76.5594 67.158 76.9021C67.773 77.5384 67.814 77.4895 67.281 76.7063C66.748 75.9231 66.42 75.6783 66.42 76.0699Z" fill="black"/>
<path d="M72.611 78.6154C72.611 79.1538 72.734 79.3007 72.857 78.9091C72.98 78.5664 72.939 78.1259 72.816 77.979C72.693 77.7832 72.57 78.0769 72.611 78.6154Z" fill="black"/>
<path d="M60.188 78.9091C60.475 79.3497 60.557 79.7902 60.311 79.8881C60.106 79.9371 60.229 80.3776 60.598 80.7692C61.172 81.4056 61.213 81.3566 61.008 80.6713C60.844 80.1818 60.967 79.7413 61.336 79.5944C61.664 79.4476 61.91 79.0559 61.91 78.7133C61.91 78.2238 61.787 78.2727 61.541 78.7622C61.213 79.3986 61.049 79.3986 60.393 78.7622C59.737 78.1259 59.696 78.1748 60.188 78.9091Z" fill="black"/>
<path d="M61.705 80.2308C61.582 80.4755 61.623 80.8182 61.828 80.965C62.033 81.1119 62.197 80.9161 62.197 80.5245C62.197 79.6923 62.074 79.5944 61.705 80.2308Z" fill="black"/>
<path d="M87.986 80.4266C88.109 80.9161 88.355 81.1609 88.478 81.014C88.601 80.8672 88.478 80.4755 88.191 80.1329C87.781 79.6923 87.74 79.7413 87.986 80.4266Z" fill="black"/>
<path d="M64.985 83.2168C64.821 83.5105 64.534 83.6084 64.329 83.4615C64.124 83.2657 63.96 83.4126 63.96 83.7063C63.96 84 63.755 84.0979 63.468 83.9021C63.099 83.6573 63.099 83.8042 63.509 84.3427C64.124 85.2727 64.575 85.4685 64.124 84.5874C63.919 84.1958 64.042 84.1469 64.616 84.3916C65.026 84.5874 65.231 84.5874 65.067 84.3916C64.903 84.1958 64.985 83.7552 65.231 83.3636C65.477 83.021 65.6 82.7273 65.477 82.7273C65.354 82.7273 65.108 82.972 64.985 83.2168Z" fill="black"/>
<path d="M132.143 83.4615C132.143 83.8532 132.307 84.049 132.512 83.9021C132.717 83.7553 132.758 83.4126 132.635 83.1678C132.266 82.5315 132.143 82.6294 132.143 83.4615Z" fill="black"/>
<path d="M59.45 84.6364C59.45 85.1259 60.229 85.8601 60.475 85.6154C60.516 85.5175 60.352 85.1259 60.024 84.7832C59.696 84.4406 59.45 84.3916 59.45 84.6364Z" fill="black"/>
<path d="M88.15 86.8881C88.724 87.7203 88.355 90.2658 87.453 91.9301C87.125 92.5665 86.92 93.2028 87.043 93.3007C87.453 93.7902 88.888 90.2168 89.052 88.4056C89.134 86.8881 89.011 86.4476 88.437 86.3497C87.863 86.2518 87.781 86.3497 88.15 86.8881Z" fill="black"/>
<path d="M68.47 86.8392C68.47 86.9371 68.757 87.1818 69.126 87.3287C69.454 87.4755 69.618 87.4266 69.495 87.1329C69.249 86.6434 68.47 86.4476 68.47 86.8392Z" fill="black"/>
<path d="M72.406 88.9441C72.57 90.0699 72.447 91.6853 72.201 92.5664C71.627 94.5734 71.955 95.1119 72.611 93.2028C73.226 91.4406 73.226 88.993 72.611 87.7692C72.242 87.0839 72.201 87.3287 72.406 88.9441Z" fill="black"/>
<path d="M73.923 89.3357C73.923 90.6573 73.8 92.3217 73.636 93.007C73.513 93.6923 73.677 93.4965 74.046 92.5175C74.538 91.1958 74.62 90.4126 74.292 88.8462L73.882 86.8881L73.923 89.3357Z" fill="black"/>
<path d="M89.872 88.7483C89.831 89.8252 89.421 91.2937 88.929 92.1259C88.437 92.9091 88.15 93.6434 88.273 93.7902C88.355 93.9371 88.888 93.2518 89.339 92.3217C89.995 91.0979 90.2 90.021 90.077 88.7483L89.913 86.8881L89.872 88.7483Z" fill="black"/>
<path d="M42.271 89.9231C41.984 91.2448 41.574 94.9161 41.41 98.1469C41.164 102.65 32.513 170.545 31.324 177.301C31.16 178.378 31.324 178.72 32.349 179.357C34.03 180.385 34.03 180.385 34.03 178.28C34.03 174.07 37.31 142.79 39.606 125.07C41.205 112.636 44.116 93.4476 44.649 91.5385C44.936 90.5105 44.813 89.972 44.034 88.9441C43.501 88.2098 43.009 87.6224 42.968 87.6224C42.886 87.6224 42.558 88.6504 42.271 89.9231ZM44.034 91.1469C43.87 91.4406 43.665 92.6154 43.624 93.7413C43.501 95.6014 42.845 98.3916 42.517 98.3916C42.23 98.3916 42.927 91.7343 43.337 90.9021C43.419 90.7063 43.706 90.5595 43.911 90.5595C44.157 90.5595 44.198 90.8042 44.034 91.1469ZM33.497 175.245C33.456 176.664 33.21 177.692 32.964 177.692C32.636 177.692 32.595 177.056 32.841 175.587C33.005 174.462 33.169 173.385 33.21 173.14C33.21 172.944 33.292 172.797 33.374 172.797C33.497 172.797 33.538 173.874 33.497 175.245Z" fill="black"/>
<path d="M70.725 90.5595C70.725 92.1748 70.766 93.4965 70.848 93.4965C71.258 93.4965 71.668 90.8042 71.463 89.3846C71.094 86.6923 70.725 87.2797 70.725 90.5595Z" fill="black"/>
<path d="M214.471 89.3846C214.471 89.9231 214.594 90.0699 214.717 89.6783C214.84 89.3357 214.799 88.8951 214.676 88.7482C214.553 88.5524 214.43 88.8461 214.471 89.3846Z" fill="black"/>
<path d="M191.429 100.888C190.568 101.769 190.568 101.818 191.306 101.378C191.921 101.035 192.29 101.035 192.618 101.427C192.905 101.769 193.11 101.818 193.11 101.524C193.11 101.28 198.03 101.084 205.738 101.084H218.325L218.817 102.455C219.35 103.923 218.858 106.517 218.12 105.979C217.874 105.832 217.833 106.028 217.956 106.42C218.079 106.86 217.997 107.203 217.751 107.203C217.505 107.203 217.3 107.448 217.3 107.741C217.3 107.986 217.505 108.084 217.71 107.937C217.956 107.79 218.12 107.888 218.12 108.182C218.12 108.476 217.874 108.818 217.587 108.965C217.3 109.063 217.054 109.601 217.013 110.091C216.931 111.413 214.799 116.65 214.061 117.385C213.692 117.776 213.651 117.923 213.938 117.727C214.635 117.287 214.553 117.972 213.733 119.098C213.323 119.636 213.241 119.93 213.528 119.734C214.102 119.343 214.225 120.224 213.651 120.615C213.446 120.811 212.954 122.182 212.544 123.699C212.134 125.217 211.724 126.196 211.642 125.902C211.56 125.559 211.314 125.315 211.109 125.315C210.863 125.315 210.904 125.755 211.191 126.343C211.56 127.175 211.478 127.566 210.658 128.643C210.166 129.329 210.002 129.671 210.33 129.476C210.822 129.133 210.863 129.182 210.453 129.769C210.166 130.21 209.961 131.287 209.961 132.217C210.002 133.636 209.141 136.476 206.066 144.993C205.369 146.902 205.246 149.888 205.779 151.503C206.025 152.238 205.697 153.217 204.467 155.42C201.884 160.021 199.26 163.986 198.809 163.986C198.563 163.986 198.481 163.79 198.645 163.545C198.768 163.301 198.686 162.958 198.522 162.811C198.317 162.664 198.194 163.154 198.235 163.888C198.276 164.622 197.989 165.503 197.661 165.846C197.087 166.336 197.128 166.385 197.825 166.091C198.276 165.895 198.932 165.308 199.26 164.769C200.818 162.126 203.565 159.091 204.877 158.552C206.148 158.063 206.353 158.112 206.927 159.091C208.034 160.951 211.437 162.517 214.43 162.517C215.906 162.517 217.915 162.86 218.94 163.301C221.4 164.329 224.68 164.769 224.68 164.084C224.68 163.79 224.065 163.007 223.368 162.322C220.129 159.434 213.118 157.378 207.419 157.72C205.41 157.818 203.77 157.818 203.77 157.72C203.77 157.622 204.344 156.545 205.082 155.371C206.025 153.804 206.64 153.217 207.378 153.217C208.936 153.217 211.273 149.937 213.405 144.797C215.414 139.902 216.029 136.916 216.029 132.364C216.029 130.748 216.029 129.231 216.07 128.986C216.234 128.007 216.07 127.713 215.578 128.252C213.938 129.818 210.576 132.608 210.412 132.462C210.33 132.315 210.453 131.825 210.658 131.336C210.904 130.846 213.118 124.483 215.66 117.238C220.416 103.483 220.539 102.748 218.94 100.839C218.161 99.9091 217.505 99.8601 205.246 99.8601C192.864 99.8601 192.331 99.9091 191.429 100.888ZM215.209 131.385C214.553 134.273 212.298 139.853 209.51 145.727C206.394 152.189 206.025 152.678 206.394 149.888C206.558 148.469 206.517 147.881 206.23 148.077C205.656 148.469 205.697 147.538 206.312 146.217C206.599 145.629 206.845 144.895 206.886 144.65C206.927 144.357 207.173 143.476 207.46 142.692C207.706 141.86 207.911 141.175 207.87 141.077C207.87 141.028 208.321 140 208.895 138.776C209.428 137.552 209.92 136.476 209.92 136.329C209.92 135.203 210.535 133.636 210.986 133.636C211.314 133.636 211.56 133.392 211.56 133.098C211.56 132.804 211.847 132.706 212.216 132.853C212.667 133.049 212.831 132.951 212.667 132.462C212.503 131.972 212.626 131.825 213.036 132.021C213.323 132.168 213.61 132.021 213.61 131.727C213.61 131.238 215.291 129.133 215.537 129.378C215.578 129.476 215.455 130.357 215.209 131.385ZM215.455 134.224C215.332 135.105 215.168 136.182 215.168 136.573C215.168 136.965 214.963 137.601 214.717 137.944C214.266 138.629 214.02 139.951 213.979 141.615C213.979 142.35 213.856 142.399 213.364 141.909C212.872 141.469 212.831 141.469 212.995 142.007C213.118 142.399 212.831 143.573 212.38 144.601C211.97 145.629 211.683 146.706 211.847 147C211.97 147.294 211.888 147.343 211.683 147.196C211.15 146.804 210.248 147.979 210.412 148.86C210.494 149.252 210.33 149.497 210.043 149.448C209.756 149.35 209.633 149.643 209.756 150.035C209.92 150.524 209.756 150.671 209.141 150.524C208.649 150.427 208.362 150.524 208.485 150.769C208.731 151.259 207.624 152.727 207.009 152.727C206.558 152.727 206.599 152.629 208.116 149.692C210.043 146.07 213.528 138.189 214.43 135.448C215.537 132.266 215.824 131.923 215.455 134.224ZM215.906 159.336C218.12 159.923 223.04 162.224 223.04 162.615C223.04 162.713 221.851 162.664 220.375 162.615C218.899 162.517 217.71 162.224 217.71 162.028C217.71 161.783 216.849 161.587 215.783 161.538C214.676 161.538 213.446 161.49 212.995 161.49C211.396 161.441 209.51 160.51 209.797 159.923C209.92 159.58 209.92 159.483 209.715 159.678C209.551 159.874 209.1 159.776 208.772 159.434C208.239 158.993 208.198 158.993 208.444 159.434C208.895 160.413 208.526 160.168 207.706 159.042L206.968 157.965L210.166 158.308C211.97 158.503 214.553 158.944 215.906 159.336Z" fill="black"/>
<path d="M210.699 138.385C210.207 139.168 210.207 139.217 210.781 138.678C211.15 138.336 211.601 138.238 211.765 138.434C211.97 138.629 211.97 138.483 211.806 138.14C211.437 137.357 211.355 137.406 210.699 138.385Z" fill="black"/>
<path d="M93.849 112.93C93.357 113.713 93.357 113.762 93.931 113.224C94.3 112.881 94.751 112.783 94.915 112.979C95.12 113.175 95.12 113.028 94.956 112.685C94.587 111.902 94.505 111.951 93.849 112.93Z" fill="black"/>
<path d="M97.047 114.105C97.334 114.448 97.662 114.594 97.785 114.448C97.908 114.301 97.703 114.007 97.293 113.86C96.719 113.566 96.678 113.615 97.047 114.105Z" fill="black"/>
<path d="M94.71 114.937C94.71 115.182 88.888 128.888 81.754 145.434C65.846 182.343 63.468 188.021 63.673 188.315C63.796 188.413 65.436 184.79 67.363 180.287C69.29 175.783 76.424 159.189 83.189 143.427C89.995 127.664 95.53 114.741 95.53 114.692C95.53 114.594 95.366 114.545 95.12 114.545C94.915 114.545 94.71 114.741 94.71 114.937Z" fill="black"/>
<path d="M97.006 116.65C97.129 117.14 97.375 117.385 97.498 117.238C97.621 117.091 97.498 116.699 97.211 116.357C96.801 115.916 96.76 115.965 97.006 116.65Z" fill="black"/>
<path d="M93.644 122.427C93.521 122.72 93.562 123.161 93.808 123.455C94.054 123.748 94.3 123.748 94.505 123.308C94.751 122.916 94.669 122.818 94.3 123.112C93.89 123.406 93.808 123.308 94.013 122.72C94.3 121.79 94.095 121.594 93.644 122.427Z" fill="black"/>
<path d="M106.6 122.867C105.534 124.14 105.575 125.119 106.805 126.538L107.789 127.762H122.18C135.997 127.762 136.571 127.713 137.35 126.783C137.801 126.245 138.17 125.364 138.17 124.825C138.17 124.287 137.801 123.406 137.35 122.867C136.571 121.937 135.997 121.888 121.975 121.888C107.953 121.888 107.379 121.937 106.6 122.867ZM136.284 122.671C137.35 123.161 137.842 124.678 137.35 125.804C136.94 126.734 136.489 126.783 122.016 126.783C108.773 126.783 107.051 126.685 106.846 126C106.395 124.629 106.6 123.406 107.338 122.916C108.117 122.378 135.136 122.133 136.284 122.671Z" fill="black"/>
<path d="M91.061 128.399C90.528 129.427 90.569 129.427 91.266 128.643C91.676 128.154 91.922 127.664 91.799 127.566C91.676 127.42 91.348 127.811 91.061 128.399Z" fill="black"/>
<path d="M84.255 143.916C84.501 145.385 84.911 145.874 84.747 144.503C84.665 143.916 84.501 143.329 84.337 143.133C84.214 142.937 84.173 143.329 84.255 143.916Z" fill="black"/>
<path d="M147.395 145.385C141.409 146.804 136.407 151.161 134.234 156.79C132.758 160.657 132.922 165.259 134.603 168.343C137.145 172.895 142.475 175.587 147.969 175.098C158.752 174.07 166.911 164.231 164.656 154.93C162.852 147.636 155.349 143.476 147.395 145.385ZM154.119 145.874C160.433 147.098 164.41 151.846 164.41 158.112C164.41 167.804 153.832 176.126 143.951 174.217C133.947 172.308 130.462 161.538 137.022 152.972C140.384 148.566 144.853 146.168 150.88 145.483C151.208 145.434 152.684 145.629 154.119 145.874Z" fill="black"/>
<path d="M143.869 148.077C143.828 148.224 143.787 148.469 143.746 148.664C143.705 148.909 143.582 149.301 143.418 149.594C143.254 149.888 143.377 150.133 143.623 150.133C143.91 150.133 144.156 149.594 144.156 148.958C144.156 147.93 143.992 147.441 143.869 148.077Z" fill="black"/>
<path d="M145.099 155.86L148.543 159.972L146.944 161.147C146.042 161.832 143.623 163.545 141.532 165.014C139.441 166.434 137.883 167.706 138.088 167.804C138.293 167.853 140.835 166.238 143.705 164.182L148.912 160.413L152.356 164.524C154.242 166.776 155.8 168.392 155.8 168.049C155.8 167.755 154.324 165.895 152.52 163.839L149.24 160.217L154.611 156.399C157.563 154.343 159.859 152.531 159.736 152.385C159.654 152.238 157.194 153.804 154.365 155.86C151.536 157.916 149.117 159.58 149.035 159.58C148.912 159.58 147.354 157.818 145.591 155.664C143.787 153.51 142.147 151.748 141.983 151.748C141.819 151.748 143.213 153.608 145.099 155.86Z" fill="black"/>
<path d="M145.919 153.755C145.468 154.098 145.468 154.196 145.878 154.196C146.206 154.196 146.288 154.441 146.124 154.783C145.919 155.175 146.083 155.175 146.616 154.685C147.026 154.294 147.436 153.951 147.518 153.902C147.6 153.853 147.395 153.706 147.067 153.559C146.739 153.413 146.247 153.51 145.919 153.755Z" fill="black"/>
<path d="M141.45 154.538C141.45 154.832 141.778 155.371 142.188 155.713C142.844 156.35 142.844 156.35 142.27 155.42C141.942 154.881 141.614 154.343 141.573 154.245C141.491 154.147 141.45 154.245 141.45 154.538Z" fill="black"/>
<path d="M159.326 155.469C159.121 156.154 159.162 156.203 159.695 155.664C160.392 154.979 160.474 154.685 159.941 154.685C159.736 154.685 159.449 155.028 159.326 155.469Z" fill="black"/>
<path d="M144.73 158.455C144.73 158.748 145.058 159.287 145.468 159.629C146.124 160.266 146.124 160.266 145.55 159.336C145.222 158.797 144.894 158.259 144.853 158.161C144.771 158.063 144.73 158.161 144.73 158.455Z" fill="black"/>
<path d="M152.643 159.776C152.643 160.511 153.545 160.511 154.037 159.776C154.201 159.531 154.201 159.483 153.996 159.678C153.791 159.874 153.422 159.825 153.135 159.58C152.807 159.238 152.643 159.336 152.643 159.776Z" fill="black"/>
<path d="M141.491 162.42C141.204 163.056 141.245 163.35 141.573 163.35C141.86 163.35 142.106 162.909 142.106 162.42C142.106 161.93 142.065 161.538 141.983 161.538C141.942 161.538 141.696 161.93 141.491 162.42Z" fill="black"/>
<path d="M148.133 162.224C148.133 162.566 148.379 162.86 148.707 162.86C148.994 162.86 149.24 162.664 149.24 162.469C149.24 162.273 148.994 162.028 148.707 161.881C148.379 161.734 148.133 161.881 148.133 162.224Z" fill="black"/>
<path d="M153.012 162.762C153.504 163.448 153.955 163.986 154.037 163.986C154.119 163.986 153.873 163.448 153.504 162.762C153.135 162.077 152.684 161.538 152.479 161.538C152.274 161.538 152.52 162.077 153.012 162.762Z" fill="black"/>
<path d="M161.376 162.175C161.499 162.664 161.745 162.909 161.868 162.762C161.991 162.615 161.868 162.224 161.581 161.881C161.171 161.441 161.13 161.49 161.376 162.175Z" fill="black"/>
<path d="M161.171 164.28C161.171 164.818 161.294 164.965 161.417 164.573C161.54 164.231 161.499 163.79 161.376 163.643C161.253 163.448 161.13 163.741 161.171 164.28Z" fill="black"/>
<path d="M156.456 166.189C155.718 166.874 155.718 166.874 156.497 166.776C156.948 166.776 157.317 166.434 157.317 166.091C157.317 165.748 157.276 165.455 157.276 165.455C157.235 165.455 156.907 165.797 156.456 166.189Z" fill="black"/>
<path d="M151.29 166.238C151.29 166.483 151.577 167.119 151.905 167.608C152.233 168.147 152.52 168.392 152.52 168.098C152.52 167.853 152.233 167.217 151.905 166.727C151.577 166.189 151.29 165.944 151.29 166.238Z" fill="black"/>
<path d="M154.488 169.469C154.693 169.713 155.144 169.86 155.431 169.762C155.759 169.615 155.554 169.42 155.021 169.224C154.324 169.028 154.16 169.077 154.488 169.469Z" fill="black"/>
<path d="M140.63 145.874C140.261 146.168 140.22 146.364 140.507 146.364C140.753 146.364 141.122 146.119 141.245 145.874C141.573 145.287 141.409 145.287 140.63 145.874Z" fill="black"/>
<path d="M204.098 148.42C203.77 149.056 203.073 150.867 202.54 152.483C202.007 154.098 201.392 155.566 201.187 155.713C200.941 155.909 200.9 156.399 201.023 156.888C201.228 157.378 201.146 157.573 200.818 157.329C200.572 157.133 200.49 157.182 200.654 157.524C200.777 157.818 200.736 158.161 200.49 158.357C200.244 158.552 200.162 158.846 200.285 159.091C200.408 159.336 200.326 159.629 200.08 159.825C199.834 160.021 199.793 160.364 199.916 160.657C200.121 161 199.998 161.098 199.588 160.951C199.26 160.755 198.727 160.853 198.399 161.147C197.948 161.538 197.948 161.587 198.481 161.392C198.85 161.245 199.342 161.343 199.547 161.587C199.957 162.077 203.319 153.755 204.426 149.399C205.041 147.098 204.959 146.853 204.098 148.42Z" fill="black"/>
<path d="M131.651 155.958C131.651 156.496 131.774 156.643 131.897 156.252C132.02 155.909 131.979 155.469 131.856 155.322C131.733 155.126 131.61 155.42 131.651 155.958Z" fill="black"/>
<path d="M166.091 159.385C166.091 159.923 166.214 160.07 166.337 159.678C166.46 159.336 166.419 158.895 166.296 158.748C166.173 158.552 166.05 158.846 166.091 159.385Z" fill="black"/>
<path d="M225.705 161C225.582 161.245 225.623 161.587 225.828 161.734C226.033 161.881 226.197 161.685 226.197 161.294C226.197 160.462 226.074 160.364 225.705 161Z" fill="black"/>
<path d="M205.328 163.301C204.262 163.692 203.278 164.231 203.155 164.476C203.032 164.769 202.622 164.965 202.294 164.965C201.925 164.965 200.777 165.455 199.629 165.993C197.866 166.923 197.456 167.413 196.39 170.056C195.693 171.671 195.078 173.58 194.955 174.217C194.873 174.902 194.545 175.636 194.299 175.93C193.971 176.322 193.889 176.175 194.094 175.392C194.258 174.804 194.217 174.217 194.012 174.119C193.643 173.776 193.602 175.734 194.012 176.517C194.176 176.762 193.93 177.888 193.52 178.965C193.11 179.993 192.495 181.608 192.208 182.49C191.921 183.371 191.47 183.958 191.183 183.811C190.896 183.713 190.691 183.762 190.691 183.958C190.773 184.643 190.117 186.504 189.83 186.504C189.625 186.504 189.174 186.895 188.764 187.336C188.231 188.021 188.026 188.07 187.862 187.58C187.739 187.091 187.534 187.189 187.165 187.825C186.632 188.657 183.803 188.706 124.886 188.853C77.08 188.951 63.14 188.853 63.14 188.413C63.14 188.07 63.058 187.923 62.935 188.07C62.812 188.217 62.812 188.706 62.976 189.147C63.222 189.881 68.019 189.93 124.394 189.93C174.004 189.881 185.812 189.783 186.96 189.245C190.158 187.776 190.117 187.825 189.01 188.951L187.985 190.028L189.338 189.098C190.076 188.608 190.486 188.168 190.24 188.07C189.994 187.972 190.404 187.091 191.101 186.112C192.495 184.203 192.536 184.105 195.98 174.021L198.317 167.168L200.613 166.238C202.745 165.406 203.032 165.406 203.688 166.091C204.836 167.315 211.15 170.741 213.815 171.573C215.127 171.965 217.505 172.308 219.022 172.308C221.482 172.308 221.81 172.21 221.81 171.378C221.81 169.469 216.89 165.161 212.831 163.497C209.961 162.371 208.034 162.322 205.328 163.301ZM214.635 165.406C217.136 166.825 219.76 168.93 221.195 170.497C221.441 170.741 220.58 170.252 219.309 169.42C215.824 167.119 211.314 165.406 207.46 165.014C204.18 164.671 204.057 164.622 205.41 164.133C208.239 163.154 211.56 163.594 214.635 165.406ZM212.995 166.825C215.537 167.804 218.981 169.713 220.375 171.035C221.318 171.916 220.908 172.063 219.719 171.329C219.145 170.937 218.94 170.986 218.94 171.378C218.94 171.769 218.776 171.769 218.448 171.476C217.587 170.692 216.398 170.301 216.726 170.888C216.89 171.231 216.685 171.231 216.07 170.839C215.578 170.545 214.963 170.35 214.717 170.497C214.43 170.594 213.692 170.399 212.995 170.056C212.339 169.713 212.011 169.42 212.339 169.371C212.667 169.371 212.831 169.224 212.708 169.077C212.544 168.93 212.052 169.077 211.56 169.371C210.822 169.86 210.699 169.811 210.945 169.322C211.191 168.881 211.068 168.783 210.617 169.028C210.207 169.175 209.92 169.175 209.92 168.979C209.92 168.587 206.189 166.629 205.738 166.825C205.533 166.874 205.41 166.727 205.41 166.483C205.41 166.238 205 165.895 204.508 165.748C203.975 165.601 205.123 165.601 207.05 165.699C208.977 165.846 211.642 166.336 212.995 166.825Z" fill="black"/>
<path d="M74.825 167.364C74.702 167.608 74.743 167.951 74.948 168.098C75.153 168.245 75.317 168.049 75.317 167.657C75.317 166.825 75.194 166.727 74.825 167.364Z" fill="black"/>
<path d="M159.736 171.916C159.859 172.161 160.146 172.21 160.351 172.063C160.884 171.622 160.802 171.476 160.105 171.476C159.777 171.476 159.613 171.671 159.736 171.916Z" fill="black"/>
<path d="M138.17 175.245C137.801 175.538 137.76 175.734 138.047 175.734C138.293 175.734 138.662 175.489 138.785 175.245C139.113 174.657 138.949 174.657 138.17 175.245Z" fill="black"/>
<path d="M156.415 175.245C156.292 175.538 156.456 175.587 156.784 175.441C157.522 175.098 157.645 174.755 157.071 174.755C156.825 174.755 156.538 174.951 156.415 175.245Z" fill="black"/>
<path d="M46.33 180.58C44.649 180.727 43.542 181.021 43.87 181.168C44.198 181.364 45.141 181.413 45.92 181.266C46.699 181.168 49.938 180.923 53.095 180.678L58.835 180.287H54.12C51.537 180.336 48.011 180.434 46.33 180.58Z" fill="black"/>
<path d="M31.898 182.93C32.185 183.077 32.554 183.028 32.677 182.881C32.841 182.734 32.595 182.587 32.144 182.636C31.693 182.636 31.57 182.783 31.898 182.93Z" fill="black"/>
<path d="M28.044 184.007C24.723 185.573 24.067 187.336 26.363 188.608C28.782 189.93 32.39 190.958 33.046 190.517C33.538 190.175 33.21 189.979 31.775 189.783C28.618 189.245 25.83 187.874 25.83 186.846C25.83 186.308 26.199 185.818 26.65 185.671C27.101 185.524 27.47 185.182 27.47 184.888C27.47 184.594 27.593 184.545 27.757 184.692C27.88 184.888 28.208 184.79 28.495 184.545C28.741 184.301 29.356 184.007 29.848 183.909C30.34 183.811 30.873 183.615 30.996 183.42C31.529 182.832 29.766 183.175 28.044 184.007Z" fill="black"/>
<path d="M45.223 184.79C45.223 185.182 45.387 185.378 45.592 185.231C45.797 185.084 45.838 184.741 45.715 184.497C45.346 183.86 45.223 183.958 45.223 184.79Z" fill="black"/>
<path d="M33.825 190.909C33.702 191.203 33.989 191.399 34.522 191.399C35.055 191.399 36.162 191.545 37.023 191.692C38.376 191.986 38.54 191.888 38.294 191.203C38.13 190.664 37.925 190.517 37.761 190.86C37.556 191.203 37.023 191.252 36.08 190.909C34.317 190.322 34.153 190.322 33.825 190.909Z" fill="black"/>
<path d="M40.836 191.007C41.123 191.986 40.344 192.231 40.057 191.252C39.893 190.811 39.811 190.811 39.811 191.301C39.77 191.643 39.565 191.79 39.278 191.594C38.991 191.399 38.95 191.448 39.114 191.79C39.278 192.133 40.18 192.378 41.123 192.329C42.066 192.329 42.558 192.182 42.23 192.035C41.902 191.839 41.369 191.399 41.082 190.958C40.631 190.273 40.631 190.273 40.836 191.007Z" fill="black"/>
<path d="M63.632 191.203C63.345 191.594 63.304 191.888 63.509 191.888C63.919 191.888 64.534 190.958 64.329 190.664C64.247 190.615 63.919 190.811 63.632 191.203Z" fill="black"/>
<path d="M178.965 191.399C177.612 191.692 177.53 191.741 178.555 191.79C179.252 191.79 180.728 191.643 181.835 191.399C183.762 191.056 183.803 191.056 182.245 191.056C181.343 191.056 179.867 191.203 178.965 191.399Z" fill="black"/>
<path d="M75.645 192.476C76.055 192.769 77.695 193.063 79.294 193.161C81.672 193.308 81.918 193.259 80.565 192.916C77.572 192.182 74.784 191.937 75.645 192.476Z" fill="black"/>
<path d="M169.125 192.427C167.116 192.671 164.902 192.769 164.205 192.671C163.549 192.524 163.221 192.573 163.508 192.72C163.754 192.818 163.918 193.112 163.836 193.259C163.672 193.601 174.619 192.671 176.505 192.231C178.022 191.839 172.856 192.035 169.125 192.427Z" fill="black"/>
<path d="M46.74 192.916C50.143 193.259 75.686 193.455 75.399 193.161C75.317 193.063 68.142 192.867 59.45 192.769C50.758 192.671 45.059 192.72 46.74 192.916Z" fill="black"/>
<path d="M83.23 193.308C83.23 194.042 100.163 194.58 123.615 194.58C145.714 194.58 164.574 193.993 162.155 193.357C161.499 193.21 158.916 193.21 156.415 193.406C153.955 193.65 149.445 193.699 146.493 193.65C143.131 193.552 141.04 193.65 141.04 193.944C141.04 194.238 133.045 194.336 118.408 194.14C96.637 193.846 92.783 193.699 86.223 193.161C84.583 193.014 83.23 193.063 83.23 193.308ZM144.033 194.189C143.746 194.287 143.172 194.287 142.803 194.189C142.393 194.042 142.639 193.944 143.295 193.944C143.992 193.944 144.279 194.042 144.033 194.189Z" fill="black"/>
</svg>
